<?xml version="1.0" encoding="utf-8"?>
<!-- Generator: Adobe Illustrator 16.0.0, SVG Export Plug-In . SVG Version: 6.00 Build 0)  -->
<!DOCTYPE svg PUBLIC "-//W3C//DTD SVG 1.1//EN" "http://www.w3.org/Graphics/SVG/1.1/DTD/svg11.dtd">
<svg version="1.1" id="Layer_1" xmlns="http://www.w3.org/2000/svg" xmlns:xlink="http://www.w3.org/1999/xlink" x="0px" y="0px"
	 width="72px" height="72px" viewBox="0 0 72 72" enable-background="new 0 0 72 72" xml:space="preserve">
<path fill="#FFFFFF" d="M35.545,7.797c-15.854,0-28.755,12.899-28.755,28.754s12.9,28.754,28.755,28.754
	c15.853,0,28.753-12.899,28.753-28.754S51.398,7.797,35.545,7.797z M35.545,57.092c-11.333,0-20.542-9.216-20.542-20.541
	c0-10.636,8.132-19.407,18.495-20.435L26.7,40.405l5.844-4.001L30.233,51.74l17.273-23.471l-7.332,4.119l0.633-3.477l2.246-11.458
	c7.617,3.008,13.029,10.427,13.029,19.098C56.082,47.876,46.867,57.092,35.545,57.092z"/>
</svg>
